<?xml version="1.0" standalone="no"?>
<!DOCTYPE svg PUBLIC "-//W3C//DTD SVG 20010904//EN"
 "http://www.w3.org/TR/2001/REC-SVG-20010904/DTD/svg10.dtd">
<svg version="1.0" xmlns="http://www.w3.org/2000/svg"
 width="225.000000pt" height="225.000000pt" viewBox="0 0 225.000000 225.000000"
 preserveAspectRatio="xMidYMid meet">

<g transform="translate(0.000000,225.000000) scale(0.100000,-0.100000)"
fill="#000000" stroke="none">
<path d="M975 2239 c-462 -58 -852 -422 -949 -887 -60 -285 0 -603 160 -843
304 -458 893 -632 1395 -410 437 193 713 665 661 1133 -32 287 -142 512 -348
708 -246 234 -576 342 -919 299z m372 -179 c170 -43 306 -117 430 -234 103
-97 160 -175 217 -297 77 -167 105 -326 86 -496 -14 -128 -33 -198 -86 -312
-40 -84 -120 -211 -144 -226 -5 -3 -33 6 -61 21 -29 14 -103 42 -163 61 -133
42 -216 84 -256 130 -33 38 -37 55 -16 73 21 16 132 190 173 268 38 74 43 130
14 156 -17 15 -20 35 -23 154 -3 125 -6 141 -30 188 -15 29 -51 72 -80 98 -90
79 -265 156 -356 156 -30 0 -35 -5 -49 -38 -12 -31 -26 -44 -69 -65 -71 -35
-130 -90 -162 -151 -24 -46 -27 -64 -30 -184 -4 -125 -6 -135 -28 -157 -28
-28 -31 -69 -10 -119 20 -48 161 -268 185 -290 31 -28 26 -51 -19 -96 -51 -51
-109 -80 -251 -124 -64 -20 -138 -48 -164 -62 -57 -30 -56 -30 -130 81 -192
289 -214 648 -58 960 122 243 355 433 613 500 151 39 324 41 467 5z"/>
</g>
</svg>
