<?xml version="1.0" standalone="no"?>
<!DOCTYPE svg PUBLIC "-//W3C//DTD SVG 20010904//EN"
 "http://www.w3.org/TR/2001/REC-SVG-20010904/DTD/svg10.dtd">
<svg version="1.0" xmlns="http://www.w3.org/2000/svg"
 width="211.000000pt" height="350.000000pt" viewBox="0 0 211.000000 350.000000"
 preserveAspectRatio="xMidYMid meet">

<g transform="translate(0.000000,350.000000) scale(0.100000,-0.100000)"
fill="#000000" stroke="none">
<path d="M63 3419 c25 -15 25 -163 0 -178 -14 -8 1 -10 58 -11 61 0 79 4 92
18 24 26 21 57 -8 80 -20 16 -22 21 -10 26 18 7 20 47 3 64 -7 7 -41 12 -82
12 -53 -1 -67 -3 -53 -11z m105 -33 c4 -30 -10 -46 -40 -46 -14 0 -18 9 -18
41 0 38 1 40 28 37 21 -2 28 -9 30 -32z m10 -68 c29 -29 7 -78 -34 -78 -22 0
-34 27 -32 73 1 20 47 24 66 5z"/>
<path d="M472 3421 c4 -13 18 -16 19 -4 0 4 -5 9 -11 12 -7 2 -11 -2 -8 -8z"/>
<path d="M840 3411 c5 -11 10 -47 10 -81 0 -34 -5 -70 -10 -81 -10 -17 -7 -19
22 -18 18 0 27 3 21 6 -9 3 -13 33 -13 99 0 88 -1 94 -20 94 -17 0 -19 -3 -10
-19z"/>
<path d="M250 3346 c-10 -13 -10 -16 4 -16 9 0 16 5 16 11 0 6 8 9 18 7 29 -5
27 -108 -3 -108 -24 0 -28 20 -8 42 18 20 18 20 -1 17 -27 -6 -43 -34 -28 -52
8 -9 35 -14 86 -15 l75 -2 -9 31 c-5 16 -7 37 -4 45 14 48 14 47 29 34 17 -14
31 -8 21 9 -4 5 -23 9 -43 7 l-37 -2 3 -55 c2 -49 0 -55 -18 -56 -18 -2 -20 5
-23 55 -3 56 -4 57 -34 60 -19 2 -36 -3 -44 -12z"/>
<path d="M475 3353 c-6 -2 -9 -37 -7 -88 3 -70 1 -85 -11 -85 -9 0 -17 6 -20
13 -2 6 -8 9 -12 5 -11 -11 4 -28 25 -28 35 0 48 38 41 116 -3 40 -10 69 -16
67z"/>
<path d="M520 3345 c-10 -12 -9 -15 3 -15 8 0 17 5 19 12 2 6 12 9 21 5 14 -5
17 -16 13 -56 -5 -44 -3 -51 15 -56 12 -4 26 -2 33 5 8 8 7 10 -6 5 -16 -6
-18 0 -18 50 0 70 16 64 44 -16 19 -50 19 -51 32 -28 14 26 19 52 5 31 -10
-16 -36 40 -28 61 8 20 -117 22 -133 2z"/>
<path d="M694 3330 c-1 -17 0 -29 0 -28 1 2 10 15 19 31 17 26 17 27 0 27 -13
0 -18 -8 -19 -30z"/>
<path d="M737 3342 c-35 -38 -10 -112 37 -112 23 0 56 18 56 31 0 6 -7 3 -16
-5 -22 -23 -41 -20 -60 9 -12 18 -14 31 -7 52 11 31 53 46 53 19 0 -10 -9 -16
-22 -17 -14 -1 -17 -3 -7 -6 8 -2 26 0 38 5 22 8 22 9 6 25 -22 22 -58 22 -78
-1z"/>
<path d="M522 3288 c-17 -17 -15 -45 4 -52 28 -11 38 -6 19 8 -19 14 -19 15
-1 35 15 16 16 21 5 21 -8 0 -20 -5 -27 -12z"/>
<path d="M78 3124 c21 -14 22 -23 22 -134 0 -117 0 -119 -27 -138 l-27 -20 34
3 c19 2 58 5 85 6 28 1 41 3 30 6 -38 9 -45 32 -45 149 0 105 1 114 22 128 21
15 19 16 -47 16 -66 0 -68 -1 -47 -16z"/>
<path d="M382 3005 c-34 -29 -44 -63 -30 -112 17 -63 111 -81 154 -30 19 22
19 22 -2 5 -27 -23 -77 -23 -98 1 -9 10 -20 35 -23 55 l-6 36 67 0 c46 0 66 4
66 13 0 18 -12 32 -37 46 -33 17 -59 13 -91 -14z m86 3 c25 -25 13 -38 -33
-38 -30 0 -45 4 -45 13 0 19 21 37 45 37 12 0 26 -5 33 -12z"/>
<path d="M838 3014 c-54 -29 -64 -93 -23 -142 47 -56 126 -47 160 18 23 44 18
69 -19 106 -38 38 -73 43 -118 18z m86 -7 c12 -9 20 -31 23 -63 4 -40 1 -54
-17 -76 -43 -55 -100 -21 -100 60 0 78 45 115 94 79z"/>
<path d="M1165 3020 c-27 -4 -44 -8 -37 -8 17 -3 15 -20 -11 -77 l-24 -50 -21
49 c-25 56 -27 72 -9 79 6 3 -9 6 -35 6 -46 1 -47 0 -30 -17 9 -9 30 -50 46
-90 33 -82 29 -124 -12 -130 -12 -2 -22 -10 -22 -18 0 -9 7 -14 18 -12 18 3
33 30 96 171 21 48 42 87 47 87 5 0 8 -5 7 -11 -5 -22 23 -21 29 0 4 17 12 21
32 19 25 -3 26 -5 29 -78 1 -55 -2 -78 -12 -85 -10 -8 -1 -11 38 -12 40 -2 46
0 28 7 -21 9 -23 15 -21 81 3 100 -7 107 -136 89z"/>
<path d="M1375 3005 c-29 -28 -31 -42 -9 -74 16 -22 16 -24 0 -33 -9 -5 -16
-18 -16 -28 0 -20 7 -23 82 -35 21 -3 40 -10 43 -15 11 -19 -6 -49 -33 -59
-23 -8 -24 -10 -6 -10 28 -1 74 36 74 60 0 36 -36 59 -91 59 -59 0 -65 21 -8
31 19 3 40 9 47 13 22 13 33 55 21 78 -10 19 -9 19 20 13 18 -4 31 -3 31 3 0
15 -30 23 -49 13 -10 -6 -23 -6 -32 0 -24 15 -49 10 -74 -16z m69 -1 c9 -22 7
-67 -3 -82 -5 -8 -17 -12 -27 -10 -14 2 -20 13 -22 42 -2 21 -1 44 2 52 7 19
42 18 50 -2z"/>
<path d="M1549 3001 c-23 -23 -29 -38 -29 -71 0 -58 33 -90 93 -90 42 0 77 21
77 46 0 4 -7 -2 -16 -14 -30 -43 -95 -24 -114 34 -13 39 -8 50 30 57 24 4 24
4 -2 6 -31 1 -34 9 -15 35 19 26 71 18 75 -11 2 -14 -3 -23 -15 -26 -10 -3 -4
-5 14 -6 41 -1 48 11 22 43 -29 37 -81 36 -120 -3z"/>
<path d="M1930 3021 c-21 -6 -22 -8 -7 -14 14 -5 17 -19 17 -76 0 -56 -3 -72
-17 -80 -14 -8 -7 -10 31 -11 44 0 48 2 32 13 -16 11 -18 24 -14 75 5 73 18
93 49 73 27 -16 47 0 23 20 -14 11 -20 11 -45 -3 -24 -14 -29 -15 -29 -3 0 16
-2 17 -40 6z"/>
<path d="M612 3013 c14 -4 27 -28 76 -143 l14 -35 19 35 c21 41 25 62 6 36
-12 -16 -15 -13 -35 39 -26 68 -26 62 -4 68 9 3 -8 5 -38 5 -30 0 -48 -2 -38
-5z"/>
<path d="M750 3010 c12 -8 13 -14 3 -41 -7 -18 -11 -34 -9 -36 2 -2 9 11 16
29 7 18 20 39 28 46 13 10 10 12 -19 12 -25 0 -30 -3 -19 -10z"/>
<path d="M1708 3013 c8 -3 12 -28 12 -73 0 -49 4 -73 16 -84 18 -19 75 -21 92
-4 9 9 12 9 12 0 0 -7 14 -12 32 -12 25 0 29 3 20 12 -7 7 -12 43 -12 90 0 74
-1 78 -22 78 -22 0 -23 -3 -20 -70 4 -80 -7 -103 -46 -98 -32 4 -45 42 -38
116 l4 52 -31 -1 c-18 0 -26 -3 -19 -6z"/>
<path d="M1211 2931 c-13 -3 -30 -16 -37 -27 -12 -17 -11 -23 2 -42 8 -12 23
-22 32 -22 12 0 13 3 4 12 -20 20 -14 45 16 67 28 21 24 24 -17 12z"/>
<path d="M303 2890 c-8 -22 -20 -32 -42 -36 -50 -10 -44 -19 10 -16 l49 4 0
39 c0 21 -1 39 -3 39 -1 0 -8 -14 -14 -30z"/>
<path d="M1346 2824 c-21 -20 -20 -38 1 -55 15 -13 15 -12 5 7 -12 22 -5 38
18 46 9 3 10 7 3 11 -6 4 -19 0 -27 -9z"/>
<path d="M1174 2767 c13 -9 20 -31 24 -67 4 -49 3 -53 -14 -46 -15 6 -17 5 -6
-5 19 -20 16 -146 -4 -157 -11 -6 -1 -9 32 -11 38 -1 46 1 36 11 -8 8 -12 55
-12 150 l0 138 -37 0 c-33 0 -35 -1 -19 -13z"/>
<path d="M84 2759 c-8 -14 11 -33 25 -25 16 10 13 36 -3 36 -8 0 -18 -5 -22
-11z"/>
<path d="M1378 2753 c6 -2 18 -2 25 0 6 3 1 5 -13 5 -14 0 -19 -2 -12 -5z"/>
<path d="M1678 2678 c-20 -21 -23 -28 -11 -28 14 0 15 -11 10 -74 -4 -51 -2
-78 6 -84 23 -17 56 -20 74 -5 17 13 17 13 -3 4 -33 -16 -44 5 -44 85 0 72 0
73 28 77 l27 4 -27 2 c-19 1 -28 7 -30 24 -3 22 -3 22 -30 -5z"/>
<path d="M1104 2660 c-47 -19 -69 -92 -44 -141 13 -22 66 -52 83 -45 7 2 4 5
-5 5 -44 2 -66 106 -34 155 8 14 26 27 38 29 19 4 20 4 3 5 -11 0 -30 -3 -41
-8z"/>
<path d="M1309 2655 c-51 -27 -63 -121 -21 -158 28 -25 77 -30 111 -12 17 8
31 20 31 26 0 6 -7 3 -16 -5 -8 -9 -31 -16 -49 -16 -41 0 -65 29 -65 77 l0 33
65 0 c73 0 84 14 39 49 -31 24 -58 26 -95 6z m75 -11 c27 -26 18 -34 -35 -34
-51 0 -53 3 -26 38 13 17 42 15 61 -4z"/>
<path d="M1568 2651 c18 -18 22 -33 22 -84 0 -36 -5 -68 -12 -75 -9 -9 -3 -12
28 -11 21 0 33 3 27 6 -9 3 -13 29 -13 78 0 76 -5 87 -50 100 l-25 7 23 -21z"/>
<path d="M67 2654 c-3 -4 0 -13 8 -21 19 -19 19 -99 1 -135 l-15 -28 92 0 c67
1 87 3 75 11 -14 8 -18 24 -18 77 0 73 10 92 47 92 27 0 30 -6 36 -82 4 -40 1
-63 -10 -77 -14 -20 -13 -21 34 -21 37 1 44 3 31 11 -14 8 -18 24 -18 77 0 40
5 73 12 80 18 18 56 14 68 -7 16 -32 12 -122 -7 -143 -15 -17 -14 -18 33 -18
38 1 45 3 32 11 -15 8 -18 24 -18 82 0 44 -5 78 -12 85 -15 15 -80 16 -95 1
-8 -8 -17 -8 -31 0 -27 14 -79 14 -88 0 -5 -8 -9 -8 -14 1 -5 8 -18 10 -36 6
-19 -5 -24 -10 -16 -15 9 -5 12 -31 10 -82 -3 -66 -5 -74 -23 -74 -18 0 -20 8
-23 88 -3 83 -4 87 -26 87 -12 0 -25 -3 -29 -6z"/>
<path d="M495 2643 c17 -17 21 -185 6 -226 -9 -24 -8 -25 30 -29 32 -3 37 -1
25 8 -19 13 -23 100 -5 88 8 -5 8 -1 0 14 -14 26 -14 107 -1 133 7 12 21 19
41 19 25 0 33 -6 45 -37 26 -61 3 -123 -51 -136 -18 -4 -17 -5 3 -6 30 -1 78
24 86 44 14 39 6 96 -18 120 -21 21 -33 24 -100 23 -66 0 -74 -2 -61 -15z"/>
<path d="M708 2648 c18 -18 16 -155 -3 -165 -9 -6 1 -8 29 -8 41 0 43 1 29 17
-20 23 -13 122 10 145 15 15 18 15 36 -2 19 -16 21 -16 27 -1 13 33 24 3 24
-63 0 -73 6 -85 53 -96 l29 -8 -26 26 c-23 23 -26 34 -26 97 l0 70 -52 0 c-34
0 -58 -6 -70 -17 -17 -15 -18 -15 -18 0 0 12 -9 17 -27 17 -21 0 -24 -3 -15
-12z"/>
<path d="M963 2649 c22 -13 25 -124 3 -148 -13 -14 -10 -16 31 -19 43 -3 44
-2 28 14 -14 14 -16 31 -13 91 l3 73 -35 0 c-29 -1 -32 -2 -17 -11z"/>
<path d="M1448 2648 c17 -17 16 -155 0 -161 -7 -3 7 -5 32 -5 25 0 39 2 33 5
-9 3 -13 28 -13 73 0 60 3 71 22 84 12 9 18 16 12 16 -5 0 -15 -5 -22 -12 -9
-9 -12 -9 -12 0 0 7 -14 12 -32 12 -25 0 -29 -3 -20 -12z"/>
<path d="M1333 2197 c-6 -6 -12 -19 -16 -28 -3 -10 -22 -18 -50 -22 -62 -9
-155 -52 -195 -90 -26 -26 -34 -29 -45 -18 -9 11 -9 13 1 7 28 -16 9 11 -24
33 -48 33 -87 21 -92 -28 -2 -19 -10 -43 -17 -55 -24 -37 -29 -92 -11 -127
l16 -32 -55 6 c-57 6 -69 0 -59 -27 7 -18 30 -22 36 -6 2 6 23 13 48 16 30 3
40 1 31 -5 -12 -7 -8 -16 20 -46 27 -28 40 -35 64 -33 19 2 29 8 27 16 -1 8 2
11 8 7 5 -3 13 2 17 12 14 39 23 42 56 23 31 -18 164 -50 207 -50 12 0 25 -10
32 -25 15 -33 39 -32 110 4 34 18 66 27 81 24 17 -3 31 2 45 17 20 22 21 22
91 6 38 -9 83 -16 99 -16 21 0 32 -7 40 -25 16 -35 62 -36 62 -1 0 23 5 25 63
31 37 4 80 2 103 -4 49 -14 67 -14 59 -1 -3 6 1 7 9 4 10 -4 16 -1 16 10 0 10
-6 13 -15 10 -9 -4 -15 0 -15 10 0 10 6 13 15 10 11 -5 15 1 15 18 0 24 -4 25
-77 33 -43 4 -91 8 -106 8 -17 0 -24 3 -16 7 14 9 -29 34 -78 45 -18 3 -36 11
-39 17 -4 7 4 8 23 4 18 -4 65 2 124 17 55 14 109 22 132 20 l37 -5 0 45 0 45
-107 6 c-128 8 -152 10 -148 14 2 2 -4 12 -13 23 -22 25 -52 24 -59 -2 -5 -19
-12 -20 -115 -18 -60 1 -111 6 -114 11 -3 4 3 5 12 1 12 -4 15 -3 10 5 -4 7
-25 12 -47 12 -31 0 -52 9 -92 39 -73 54 -93 63 -104 48z m36 -58 c6 10 10 9
15 -4 3 -9 10 -14 15 -11 5 3 11 0 14 -7 3 -7 -4 -12 -18 -12 -13 0 -21 3 -19
6 2 4 -5 9 -16 12 -13 3 -20 13 -19 29 l0 23 10 -25 c7 -18 12 -21 18 -11z
m-199 -39 c-8 -5 -19 -10 -25 -10 -5 0 -3 5 5 10 8 5 20 10 25 10 6 0 3 -5 -5
-10z m287 -6 c-3 -3 -12 -4 -19 -1 -8 3 -5 6 6 6 11 1 17 -2 13 -5z m80 -8 c0
-8 -8 -11 -20 -8 -14 4 -16 7 -5 13 19 12 25 11 25 -5z m-167 0 c0 -2 2 -11 5
-18 4 -9 -2 -14 -15 -15 -14 -1 -20 4 -20 18 0 10 7 19 15 19 8 0 15 -2 15 -4z
m289 -38 c16 -13 22 -14 30 -4 6 7 9 15 6 18 -3 2 11 4 30 3 19 0 38 -4 42 -9
4 -4 -5 -4 -21 0 -22 5 -27 4 -21 -6 6 -9 4 -11 -4 -6 -7 5 -20 1 -30 -8 -16
-14 -20 -14 -30 -2 -12 14 -63 15 -93 2 -9 -4 -28 -1 -45 8 l-28 15 28 1 c15
0 27 -4 27 -10 0 -5 5 -10 11 -10 5 0 7 5 3 12 -4 6 -3 8 2 5 6 -3 16 -2 23 2
19 12 48 8 70 -11z m271 5 c0 -5 -12 -9 -27 -10 -19 -1 -22 1 -12 8 17 11 39
12 39 2z m-547 -123 l-14 -25 6 28 c4 19 2 26 -5 22 -5 -3 -10 -2 -10 4 0 5 6
11 13 14 8 3 6 9 -7 19 -10 8 -16 21 -13 29 4 10 6 9 6 -3 1 -10 6 -18 11 -18
6 0 9 3 9 8 -1 4 0 14 1 22 1 8 6 -5 10 -30 5 -32 3 -52 -7 -70z m337 76 c0
-8 -8 -20 -17 -27 -16 -13 -17 -12 -4 3 7 10 11 25 7 33 -3 9 -2 13 4 10 6 -3
10 -12 10 -19z m340 20 c0 -3 -4 -8 -10 -11 -5 -3 -10 -1 -10 4 0 6 5 11 10
11 6 0 10 -2 10 -4z m-1085 -106 c-4 -6 -2 -17 4 -24 8 -9 7 -13 -4 -13 -8 0
-12 4 -9 8 2 4 -2 10 -8 12 -10 4 -9 8 2 16 19 14 23 14 15 1z m508 -29 c13
-2 8 -48 -7 -60 -11 -9 -16 -9 -22 0 -4 7 -3 9 4 5 20 -12 22 11 2 29 -25 22
-26 34 -2 30 9 -2 20 -4 25 -4z m-59 -26 c-4 -8 -11 -12 -16 -9 -6 4 -5 10 3
15 19 12 19 11 13 -6z m-453 -28 c-10 -9 -11 -8 -5 6 3 10 9 15 12 12 3 -3 0
-11 -7 -18z m419 13 c0 -5 -7 -7 -15 -4 -8 4 -15 8 -15 10 0 2 7 4 15 4 8 0
15 -4 15 -10z m618 -15 c8 -8 -18 -25 -38 -24 -10 0 -9 3 5 10 16 7 12 8 -15
5 -19 -3 -29 -2 -22 1 9 4 10 8 2 18 -9 11 -4 12 25 5 20 -5 39 -11 43 -15z
m-993 -25 c-3 -5 -12 -10 -18 -10 -7 0 -6 4 3 10 19 12 23 12 15 0z m1005 -10
c0 -5 -8 -10 -17 -10 -15 0 -16 2 -3 10 19 12 20 12 20 0z m-555 -11 c-16 -5
-40 -7 -52 -4 -13 2 -23 0 -23 -5 0 -4 -10 -5 -22 -2 -23 6 -23 6 2 12 14 4
48 7 75 7 44 1 47 0 20 -8z m70 1 c4 -6 12 -7 18 -4 7 4 8 3 4 -1 -11 -12 -57
-18 -57 -7 0 21 25 29 35 12z m310 -68 c-3 -3 -11 0 -18 7 -9 10 -8 11 6 5 10
-3 15 -9 12 -12z"/>
<path d="M1858 1526 c3 -5 -5 -7 -17 -3 -18 4 -20 3 -10 -9 6 -8 9 -17 5 -21
-3 -3 -6 -1 -6 5 0 6 -7 9 -15 6 -8 -4 -12 -11 -8 -18 4 -6 -1 -5 -11 3 -14
12 -17 12 -14 1 2 -8 -2 -14 -9 -15 -6 0 -15 -4 -20 -9 -5 -6 -2 -6 6 -1 11 6
13 4 6 -11 -5 -10 -9 -29 -9 -40 -1 -12 -6 -20 -12 -17 -15 6 -8 -60 10 -95 8
-16 12 -33 8 -37 -4 -3 0 -5 8 -3 8 2 14 -2 13 -9 -5 -23 22 -34 55 -22 18 6
37 9 44 6 7 -3 4 -6 -7 -6 -11 -1 -27 -6 -35 -11 -20 -13 103 -4 128 9 11 6
21 9 23 7 2 -2 10 2 16 9 7 8 9 16 4 19 -5 3 -14 -1 -21 -9 -15 -18 -30 -20
-30 -3 0 6 3 8 7 5 10 -10 34 14 26 27 -3 6 0 6 8 -1 22 -21 27 -16 40 41 10
48 10 61 -7 107 -10 29 -25 54 -32 57 -11 3 -10 -2 2 -21 15 -22 15 -26 2 -40
-8 -8 -14 -16 -13 -18 1 -3 -3 1 -9 8 -6 7 -15 9 -19 5 -5 -4 -5 -1 -1 6 5 7
14 11 22 8 7 -3 16 0 20 6 4 6 3 8 -4 4 -6 -3 -13 -2 -17 4 -4 6 -10 8 -15 5
-5 -3 -11 -1 -14 4 -7 11 13 9 32 -2 6 -5 12 -4 12 2 0 5 -4 12 -10 16 -5 3
-7 12 -4 19 9 25 -49 44 -73 24 -10 -8 -12 -8 -8 3 4 10 -3 14 -24 14 -16 0
-27 -4 -23 -9z m82 -74 c0 -15 -2 -15 -10 -2 -8 13 -10 12 -11 -5 -1 -11 -1
-24 0 -28 1 -5 -3 -6 -8 -3 -19 12 -23 -16 -5 -30 11 -9 12 -12 4 -8 -12 5
-12 4 -4 -5 9 -10 17 -10 35 -1 22 12 22 13 4 26 -19 14 -9 20 11 6 11 -7 15
-41 5 -40 -28 3 -33 -2 -20 -19 12 -16 12 -16 -1 -6 -12 9 -19 8 -32 -1 -10
-7 -14 -17 -10 -22 4 -5 -2 -1 -14 9 -24 20 -36 21 -52 5 -8 -8 -9 -15 -1 -25
7 -7 8 -13 4 -13 -5 0 0 -10 11 -22 13 -16 14 -19 2 -10 -11 9 -18 10 -23 2
-3 -5 0 -10 7 -10 8 0 6 -5 -5 -11 -28 -16 -40 0 -15 22 l23 19 -28 -4 c-20
-4 -30 1 -38 16 -8 15 -8 19 0 14 6 -4 11 -2 11 4 0 6 5 8 12 4 9 -6 9 -9 0
-12 -19 -6 -14 -21 6 -17 9 2 21 4 26 4 5 1 3 8 -5 17 -10 13 -10 17 2 25 12
7 7 13 -12 11 -3 -1 -6 5 -6 13 0 8 4 12 9 9 12 -7 10 10 -3 23 -7 7 -6 12 6
17 9 3 14 2 11 -3 -6 -10 24 -25 32 -16 3 3 0 5 -6 5 -7 0 -12 5 -12 12 0 9 3
9 12 0 19 -19 29 -14 16 7 -7 11 -16 17 -22 14 -5 -4 -6 -1 -2 6 6 9 12 9 25
-3 15 -14 17 -13 15 12 -1 20 5 29 20 33 26 7 36 2 36 -19z m-156 -111 c3 -5
-1 -11 -9 -15 -8 -3 -17 0 -21 6 -4 7 -3 8 4 4 7 -4 12 -2 12 3 0 13 7 14 14
2z m160 -103 c-3 -4 -9 -8 -15 -8 -5 0 -9 4 -9 8 0 5 7 9 15 9 8 0 12 -4 9 -9z"/>
<path d="M1840 1368 c-14 -6 -20 -12 -13 -15 7 -2 21 1 32 7 17 8 19 8 15 -4
-6 -16 12 -31 20 -17 8 13 -4 41 -18 40 -6 0 -22 -5 -36 -11z"/>
<path d="M290 1487 c-3 -3 -50 -10 -105 -16 -160 -18 -185 -22 -185 -30 0 -8
108 2 253 25 151 23 234 3 300 -74 62 -70 82 -88 129 -109 53 -26 213 -59 343
-72 92 -9 346 -7 363 2 4 4 36 10 70 16 76 12 112 3 162 -43 74 -66 155 -94
335 -116 50 -6 105 -13 123 -15 18 -3 31 -1 28 4 -3 4 -43 12 -88 15 -112 10
-259 41 -307 65 -21 11 -59 38 -84 59 -53 46 -92 56 -167 41 -89 -17 -337 -27
-435 -17 -129 13 -277 45 -338 72 -36 16 -68 42 -102 83 -64 76 -115 102 -213
109 -42 4 -79 4 -82 1z"/>
<path d="M295 1455 c-5 -2 -73 -13 -149 -25 -77 -11 -142 -22 -144 -25 -13
-13 10 -16 39 -6 18 6 87 18 153 26 243 30 290 21 321 -61 29 -78 42 -91 128
-133 83 -40 142 -54 317 -72 238 -25 325 -22 507 17 70 16 73 16 107 -5 19
-12 38 -30 41 -40 3 -10 23 -23 48 -30 23 -7 49 -17 59 -21 31 -17 134 -39
203 -45 39 -3 96 -8 128 -11 31 -3 57 -1 57 4 0 5 -53 12 -117 16 -113 6 -235
28 -257 45 -6 4 -32 14 -57 20 -30 9 -51 21 -59 36 -7 13 -27 31 -44 40 -29
16 -37 16 -111 2 -135 -27 -217 -36 -285 -32 -284 17 -436 41 -532 84 -69 32
-97 60 -117 121 -17 51 -33 68 -81 85 -38 14 -130 19 -155 10z"/>
<path d="M245 1394 c-53 -16 -110 -39 -135 -54 -8 -5 -36 -21 -62 -36 l-48
-27 0 -638 0 -639 1039 0 c572 0 1046 3 1055 6 14 5 16 32 16 190 0 184 0 184
-22 185 l-23 0 23 9 c22 9 22 10 22 235 0 207 -1 225 -17 225 -17 1 -17 1 0
11 9 5 17 17 17 25 0 9 -5 12 -12 8 -10 -6 -10 -4 0 7 6 7 12 28 12 46 0 31
-2 33 -37 34 l-38 2 40 7 c44 8 38 9 -85 15 -140 6 -241 23 -307 50 -20 8 -44
15 -54 15 -10 0 -26 12 -36 28 -34 55 -76 67 -133 37 -86 -45 -162 -56 -378
-55 -203 0 -421 34 -482 74 -46 30 -58 33 -39 9 11 -15 10 -14 -9 1 -23 20
-30 32 -12 21 18 -11 -2 56 -39 129 -35 69 -78 96 -150 95 -31 0 -78 -7 -106
-15z m210 -34 c10 -11 16 -20 13 -20 -3 0 -13 9 -23 20 -10 11 -16 20 -13 20
3 0 13 -9 23 -20z m-45 -56 c0 -2 -9 0 -20 6 -11 6 -20 13 -20 16 0 2 9 0 20
-6 11 -6 20 -13 20 -16z m10 -33 c33 -26 35 -32 37 -90 1 -58 0 -61 -14 -42
-8 12 -21 21 -29 21 -8 0 -14 7 -14 15 0 8 -5 15 -11 15 -5 0 -7 -5 -4 -11 12
-18 12 -58 1 -62 -6 -3 -11 8 -12 24 -1 16 -8 37 -17 47 -9 10 -18 29 -20 43
-4 24 -17 28 -49 14 -13 -5 -18 -2 -18 10 0 9 4 14 9 11 5 -3 14 1 21 9 9 10
9 15 1 15 -6 0 -11 -4 -11 -9 0 -10 -26 -9 -36 2 -8 7 25 11 64 8 16 -1 21 2
16 10 -13 21 48 0 86 -30z m-180 5 c0 -3 -4 -8 -10 -11 -5 -3 -10 -1 -10 4 0
6 5 11 10 11 6 0 10 -2 10 -4z m-33 -21 c-4 -8 -1 -17 5 -21 6 -4 8 -3 5 3 -3
5 0 10 7 10 26 0 5 -26 -26 -32 -21 -5 -33 -3 -39 6 -13 21 -11 25 14 37 31
15 40 14 34 -3z m120 -26 c1 -15 -2 -19 -13 -15 -9 3 -23 6 -32 6 -12 0 -9 4
8 14 34 19 36 19 37 -5z m201 -24 c-3 -3 -9 2 -12 12 -6 14 -5 15 5 6 7 -7 10
-15 7 -18z m-406 1 c7 4 8 2 4 -5 -9 -13 -26 -5 -25 12 0 9 2 8 6 -1 2 -6 10
-9 15 -6z m68 -16 c-8 -5 -19 -10 -25 -10 -5 0 -3 5 5 10 8 5 20 10 25 10 6 0
3 -5 -5 -10z m151 -7 c13 -17 13 -17 -6 -3 -11 8 -22 16 -24 17 -2 2 0 3 6 3
6 0 17 -8 24 -17z m9 -37 c0 -11 -19 -15 -25 -6 -3 5 1 10 9 10 9 0 16 -2 16
-4z m74 -8 c-3 -4 -1 -8 4 -8 6 0 12 -7 16 -15 8 -21 3 -19 -22 8 -17 18 -19
24 -8 24 8 0 13 -4 10 -9z m190 -17 c-2 -3 -12 3 -22 13 -16 17 -16 18 5 5 12
-7 20 -15 17 -18z m934 10 c8 -4 19 -19 26 -32 6 -13 22 -29 35 -35 15 -8 18
-13 9 -16 -12 -5 -58 38 -58 55 0 5 -4 5 -10 2 -5 -3 -10 0 -10 7 0 8 -5 6
-11 -5 -6 -9 -16 -14 -22 -11 -7 4 -9 4 -5 -1 4 -4 -14 -18 -40 -30 -46 -22
-66 -18 -55 12 3 7 0 13 -6 13 -6 0 -11 -6 -11 -14 0 -8 -8 -15 -17 -15 -10 0
-27 -1 -38 -2 -11 -1 -31 -1 -45 1 -20 1 -16 4 15 11 22 5 64 16 92 25 29 9
55 15 58 14 3 0 13 6 21 15 17 16 51 20 72 6z m-1191 -23 c-3 -8 -6 -5 -6 6
-1 11 2 17 5 13 3 -3 4 -12 1 -19z m370 -14 c-3 -3 -12 -4 -19 -1 -8 3 -5 6 6
6 11 1 17 -2 13 -5z m-287 -13 c0 -6 -4 -12 -8 -15 -5 -3 -9 1 -9 9 0 8 4 15
9 15 4 0 8 -4 8 -9z m1104 -12 c-6 -11 -24 -2 -24 11 0 5 7 7 15 4 8 -4 12
-10 9 -15z m-1215 -22 c-3 -26 2 -38 14 -32 6 4 3 -1 -7 -9 -17 -14 -15 -20 5
-18 4 1 9 -12 11 -27 3 -23 1 -28 -11 -24 -12 3 -11 0 3 -11 10 -8 23 -13 27
-10 5 3 9 0 9 -5 0 -6 -5 -11 -11 -11 -5 0 -7 -4 -4 -10 3 -5 13 -10 21 -10
10 0 12 5 8 13 -6 9 -5 9 8 0 8 -7 18 -10 21 -6 4 3 7 2 7 -4 0 -18 -25 -22
-110 -17 -99 6 -125 15 -127 43 -1 17 1 18 12 8 7 -6 11 -15 9 -19 -2 -3 4 -5
13 -4 9 2 19 9 21 17 3 11 2 11 -6 1 -7 -10 -11 -10 -22 3 -15 18 -2 20 47 6
21 -6 35 -6 39 0 3 5 2 9 -3 8 -26 -4 -35 3 -14 12 23 9 23 10 6 23 -13 9 -15
17 -8 30 5 10 14 19 19 19 5 1 8 14 8 29 -1 15 3 25 8 22 5 -3 8 -11 7 -17z
m615 7 c6 -15 4 -15 -11 -3 -10 7 -20 15 -22 16 -2 2 3 3 11 3 9 0 19 -7 22
-16z m49 9 c-7 -2 -21 -2 -30 0 -10 3 -4 5 12 5 17 0 24 -2 18 -5z m34 0 c-4
-3 -2 -12 4 -20 9 -10 8 -13 -4 -13 -9 0 -14 7 -12 18 5 23 4 22 12 22 3 0 3
-3 0 -7z m204 -3 c-19 -4 -41 -6 -50 -3 -12 3 -12 2 2 -7 9 -6 22 -8 29 -4 8
5 9 2 5 -9 -4 -10 0 -20 9 -25 10 -6 -14 -9 -64 -8 -79 1 -79 1 -71 24 8 20 7
21 -11 12 -11 -6 -19 -16 -17 -23 1 -6 -8 -13 -20 -15 -13 -2 -23 2 -23 8 0 6
5 8 11 5 6 -4 17 1 24 11 17 22 19 38 5 29 -5 -3 -10 -2 -10 2 0 5 48 9 108
10 73 1 96 -1 73 -7z m300 -27 c6 -16 12 -33 13 -40 1 -7 6 -16 11 -20 4 -4 5
-2 1 5 -4 6 -5 12 -1 12 3 0 10 -10 15 -22 7 -19 9 -20 9 -5 1 14 6 17 23 11
12 -3 44 -6 70 -5 30 0 47 -3 43 -9 -3 -6 -13 -10 -21 -10 -8 0 -14 -5 -14
-11 0 -7 10 -5 25 5 26 17 80 22 71 7 -4 -5 2 -7 11 -5 31 8 98 -21 98 -42 0
-25 -71 -37 -97 -16 -9 8 -36 16 -60 19 -24 3 -47 9 -53 13 -5 4 -19 10 -30
13 -18 7 -19 6 -3 -6 15 -12 -1 -15 -113 -20 -95 -4 -138 -2 -162 7 -35 15
-101 12 -159 -5 -20 -6 -50 -10 -66 -7 -17 2 -29 1 -27 -3 8 -12 -279 -7 -294
5 -11 8 -13 8 -7 -1 6 -10 -25 -13 -143 -13 -89 0 -152 4 -156 10 -3 6 -1 10
5 10 7 0 10 6 7 14 -7 18 56 36 145 40 14 0 24 4 21 9 -2 4 0 7 5 7 5 0 13 -9
18 -21 9 -20 10 -20 24 -3 14 16 13 17 -2 11 -10 -3 -18 -2 -18 4 0 7 22 10
60 7 33 -1 60 0 60 4 0 4 104 7 231 8 241 0 290 7 375 54 45 24 73 20 85 -11z
m-221 5 c0 -3 -6 -9 -12 -11 -8 -3 -6 -6 5 -6 9 -1 17 3 17 7 0 5 7 9 16 9 14
0 14 -2 -2 -14 -25 -18 -57 -16 -70 5 -10 16 -8 18 17 17 16 0 29 -3 29 -7z
m-885 -41 c8 -25 18 -34 48 -42 36 -10 38 -12 21 -25 -15 -12 -16 -12 -9 -1 5
10 4 12 -3 7 -7 -4 -12 -13 -12 -20 0 -18 -51 -17 -72 1 -9 8 -20 13 -25 10
-4 -3 -8 17 -9 43 l-1 48 25 -16 c25 -16 25 -16 20 11 -7 35 3 26 17 -16z
m962 37 c-3 -3 -12 -4 -19 -1 -8 3 -5 6 6 6 11 1 17 -2 13 -5z m301 -19 c-3
-3 -9 2 -12 12 -6 14 -5 15 5 6 7 -7 10 -15 7 -18z m-728 5 c11 -7 7 -10 -18
-10 -20 0 -31 4 -27 10 8 13 26 13 45 0z m35 0 c3 -5 1 -10 -4 -10 -6 0 -11 5
-11 10 0 6 2 10 4 10 3 0 8 -4 11 -10z m-105 -4 c0 -3 -4 -8 -10 -11 -5 -3
-10 -1 -10 4 0 6 5 11 10 11 6 0 10 -2 10 -4z m742 -19 c-15 -7 -26 -7 -33 0
-6 6 1 10 23 10 30 0 30 -1 10 -10z m115 -11 c4 -3 -10 -6 -30 -6 -20 0 -37 4
-37 8 0 9 58 7 67 -2z m130 8 c-3 -3 -12 -4 -19 -1 -8 3 -5 6 6 6 11 1 17 -2
13 -5z m35 -1 c-6 -2 -9 -10 -6 -15 4 -6 2 -8 -3 -5 -6 4 -14 0 -17 -9 -4 -12
-2 -15 9 -10 9 3 15 0 15 -8 0 -9 -7 -12 -20 -9 -24 6 -23 5 -8 38 6 14 18 25
27 24 11 0 12 -2 3 -6z m-102 -19 c0 -2 -11 -4 -25 -4 -14 0 -25 4 -25 9 0 4
11 6 25 3 14 -2 25 -6 25 -8z m220 6 c0 -5 -2 -10 -4 -10 -3 0 -8 5 -11 10 -3
6 -1 10 4 10 6 0 11 -4 11 -10z m-195 -10 c3 -5 1 -10 -4 -10 -6 0 -11 5 -11
10 0 6 2 10 4 10 3 0 8 -4 11 -10z m22 -12 c-3 -8 -6 -5 -6 6 -1 11 2 17 5 13
3 -3 4 -12 1 -19z m-297 -83 c22 -23 22 -25 4 -26 -50 -3 -89 4 -117 21 l-30
19 54 4 c30 2 57 4 60 5 3 1 16 -9 29 -23z m195 15 c14 -5 23 -14 20 -20 -8
-14 -125 -13 -125 1 0 5 -4 8 -10 4 -5 -3 -21 -3 -35 1 -20 5 -23 9 -13 15 18
12 131 11 163 -1z m-676 -20 c-14 -4 -37 -7 -50 -6 -13 1 -28 -3 -32 -9 -6 -7
-10 -6 -14 3 -2 6 -9 12 -14 12 -6 0 -7 -4 -4 -10 4 -6 -66 -9 -199 -9 -127 1
-206 6 -206 12 0 5 -7 4 -15 -3 -8 -6 -22 -10 -32 -7 -13 3 -11 5 7 7 l25 2
-25 7 c-14 4 112 8 280 8 168 1 293 -3 279 -7z m1011 6 c0 -2 -7 -7 -16 -10
-8 -3 -12 -2 -9 4 6 10 25 14 25 6z m-45 -316 c-3 -5 -14 -10 -23 -9 -14 0
-13 2 3 9 27 11 27 11 20 0z m-913 -102 c21 -12 18 -13 -37 -19 -33 -4 -109
-7 -170 -7 l-110 0 110 17 c151 22 181 24 207 9z"/>
<path d="M390 1271 c0 -6 9 -15 20 -21 11 -6 20 -15 20 -21 0 -6 -4 -8 -8 -5
-15 9 -12 -42 3 -54 8 -7 16 -10 16 -6 5 23 3 32 -11 38 -12 5 -12 7 3 7 9 1
17 7 16 14 0 15 -59 63 -59 48z"/>
<path d="M165 1241 c-6 -11 13 -26 22 -17 4 3 0 6 -8 6 -11 0 -11 2 1 10 9 6
10 10 3 10 -6 0 -14 -4 -18 -9z"/>
<path d="M1427 1079 l-22 -18 24 4 c14 3 31 11 38 18 22 22 -14 18 -40 -4z"/>
<path d="M270 900 c0 -5 5 -10 11 -10 5 0 7 5 4 10 -3 6 -8 10 -11 10 -2 0 -4
-4 -4 -10z"/>
<path d="M1150 1050 c0 -18 30 -44 40 -34 5 5 -2 17 -16 27 -14 10 -24 13 -24
7z"/>
<path d="M1420 981 c0 -6 4 -13 10 -16 6 -3 7 1 4 9 -7 18 -14 21 -14 7z"/>
<path d="M1386 964 c-9 -24 -7 -34 6 -34 6 0 8 3 5 6 -3 4 -2 15 4 25 6 11 6
19 0 19 -5 0 -12 -7 -15 -16z"/>
<path d="M1473 960 c-28 -11 -30 -20 -4 -20 10 0 21 7 25 15 3 8 4 15 3 14 -1
0 -12 -4 -24 -9z"/>
<path d="M1597 959 c6 -6 9 -18 6 -25 -3 -8 -1 -14 4 -14 16 0 12 38 -5 45
-13 5 -14 3 -5 -6z"/>
<path d="M651 948 c-1 -21 -17 -24 -24 -5 -2 6 -4 0 -4 -15 -1 -29 11 -35 36
-19 12 8 12 14 4 33 -9 18 -12 19 -12 6z m4 -28 c-3 -5 -12 -10 -18 -10 -7 0
-6 4 3 10 19 12 23 12 15 0z"/>
<path d="M584 942 c2 -4 -5 -14 -16 -21 -18 -11 -20 -11 -15 3 9 22 0 20 -12
-3 -9 -16 -6 -18 26 -17 30 1 37 5 38 24 1 13 -4 22 -12 22 -8 0 -12 -4 -9 -8z"/>
<path d="M748 933 c6 -2 18 -2 25 0 6 3 1 5 -13 5 -14 0 -19 -2 -12 -5z"/>
<path d="M854 932 c3 -6 -2 -13 -11 -15 -14 -4 -13 -5 5 -6 23 -1 30 13 10 25
-6 4 -8 3 -4 -4z"/>
<path d="M686 912 c-2 -4 12 -8 31 -9 19 -1 33 1 29 4 -8 9 -55 12 -60 5z"/>
<path d="M390 984 c0 -2 9 -8 20 -14 15 -8 18 -8 14 3 -4 11 -34 21 -34 11z"/>
<path d="M402 946 c7 -8 15 -12 17 -11 5 6 -10 25 -20 25 -5 0 -4 -6 3 -14z"/>
<path d="M430 934 c0 -8 5 -12 10 -9 6 3 10 1 10 -6 0 -7 2 -10 5 -7 8 7 -5
38 -16 38 -5 0 -9 -7 -9 -16z"/>
<path d="M598 863 c7 -3 16 -2 19 1 4 3 -2 6 -13 5 -11 0 -14 -3 -6 -6z"/>
<path d="M868 863 c6 -2 18 -2 25 0 6 3 1 5 -13 5 -14 0 -19 -2 -12 -5z"/>
</g>
</svg>
