<?xml version="1.0" standalone="no"?>
<!DOCTYPE svg PUBLIC "-//W3C//DTD SVG 20010904//EN"
 "http://www.w3.org/TR/2001/REC-SVG-20010904/DTD/svg10.dtd">
<svg version="1.0" xmlns="http://www.w3.org/2000/svg"
 width="612.000000pt" height="612.000000pt" viewBox="0 0 612.000000 612.000000"
 preserveAspectRatio="xMidYMid meet">

<g transform="translate(0.000000,612.000000) scale(0.100000,-0.100000)"
fill="#000000" stroke="none">
<path d="M5176 4925 c-30 -51 -45 -61 -21 -14 9 17 14 33 12 35 -2 3 -31 -16
-63 -41 -33 -25 -110 -85 -172 -132 -112 -84 -114 -86 -108 -119 3 -19 8 -51
11 -71 l6 -38 -20 45 c-11 25 -20 54 -20 64 -1 18 -2 18 -19 3 -10 -10 -24
-17 -30 -17 -6 0 -18 -9 -26 -21 -8 -12 -18 -19 -23 -16 -5 3 -35 -15 -68 -39
-33 -24 -71 -52 -85 -62 -13 -9 -55 -47 -94 -83 -56 -54 -69 -72 -69 -97 0
-17 -4 -29 -9 -26 -4 3 -8 15 -8 27 0 19 -3 18 -27 -13 -15 -19 -40 -46 -55
-60 -33 -29 -36 -69 -12 -149 8 -29 13 -55 11 -57 -6 -6 -47 91 -47 110 0 39
-22 11 -120 -157 -13 -23 -45 -96 -71 -162 l-46 -121 24 -63 c29 -78 25 -89
-7 -21 -27 57 -37 62 -46 23 -4 -16 -10 -32 -14 -38 -4 -5 -12 -25 -19 -44
-10 -31 -9 -39 14 -73 34 -52 31 -58 -9 -19 l-34 33 -20 -43 c-10 -24 -29 -53
-41 -63 -11 -11 -21 -24 -21 -31 0 -6 -16 -17 -35 -24 -34 -12 -39 -31 -9 -31
8 0 31 -11 51 -25 l37 -24 18 27 c10 15 44 65 76 112 251 373 560 769 877
1125 149 167 402 432 359 375 -10 -14 -32 -38 -49 -55 -16 -16 -75 -82 -130
-147 -162 -188 -166 -194 -159 -179 5 9 3 12 -5 7 -7 -4 -10 -13 -8 -19 2 -6
-2 -18 -9 -27 -156 -187 -417 -534 -599 -795 -117 -168 -305 -453 -305 -463 0
-13 59 -31 66 -21 3 6 15 7 26 3 15 -4 18 -3 13 6 -5 9 -2 10 12 6 18 -6 34 3
180 97 162 105 198 137 156 137 -10 0 1 10 25 21 24 12 41 24 38 27 -3 2 6 18
19 34 14 16 25 36 25 44 0 8 5 14 10 14 6 0 10 8 10 18 0 9 21 46 46 82 25 36
49 74 55 85 5 11 19 36 31 55 47 77 49 84 30 91 -15 5 -14 7 5 13 26 8 93 83
93 103 0 7 5 13 10 13 6 0 10 5 10 11 0 6 16 29 35 52 19 22 35 45 35 50 0 6
10 19 21 31 12 12 46 55 75 96 30 41 58 80 63 86 34 43 115 209 101 209 -1 0
8 20 19 45 27 59 27 73 0 65 -15 -5 -19 -4 -15 4 4 6 13 11 21 11 11 0 75 116
75 136 0 3 14 23 30 44 l31 39 -23 15 c-39 28 -64 20 -92 -29z"/>
<path d="M4745 4403 c-337 -400 -688 -872 -876 -1177 -48 -77 -32 -73 -174
-42 -281 62 -512 31 -604 -81 l-30 -36 -48 43 c-26 23 -65 51 -85 61 -95 49
-245 61 -422 34 -101 -15 -380 -84 -372 -92 2 -3 37 4 78 15 373 102 651 90
796 -36 l42 -37 -10 -535 c-6 -294 -13 -586 -16 -647 l-6 -113 -41 34 c-113
90 -227 126 -401 126 -196 0 -338 -34 -792 -189 -343 -117 -486 -156 -603
-167 l-73 -7 7 24 c5 13 21 65 36 114 31 104 139 448 280 894 54 172 99 317
99 322 0 5 -10 9 -23 9 -22 0 -30 -18 -96 -202 -40 -112 -90 -250 -111 -308
-22 -58 -78 -213 -125 -345 -48 -132 -122 -339 -166 -460 -43 -121 -79 -225
-79 -231 0 -7 14 -10 38 -8 20 2 262 20 537 40 275 19 673 48 884 63 l384 27
46 -46 c59 -58 133 -84 246 -85 105 0 174 25 237 86 l48 45 727 -52 c401 -29
816 -59 923 -67 107 -8 196 -14 197 -13 0 0 -28 80 -63 176 -35 96 -75 209
-90 250 -14 41 -50 140 -79 220 -30 80 -83 226 -118 325 -225 627 -208 585
-233 585 -13 0 -24 -3 -24 -7 0 -4 27 -93 59 -197 53 -170 343 -1094 357
-1138 4 -15 -1 -18 -28 -18 -63 0 -245 48 -503 133 -231 76 -347 112 -520 162
-137 39 -281 59 -425 59 -193 0 -273 -23 -373 -106 -27 -22 -50 -38 -52 -36
-6 5 -15 279 -26 803 l-10 480 46 42 c74 68 135 86 305 91 115 3 169 0 264
-17 65 -11 121 -22 123 -25 3 -2 -31 -62 -75 -133 -89 -144 -190 -314 -247
-416 -28 -52 -35 -71 -26 -80 16 -16 38 0 66 48 12 22 55 99 95 170 40 72 80
142 89 157 9 15 45 76 80 136 58 97 67 108 90 106 14 -2 18 -1 9 2 -24 7 -23
15 15 76 194 318 572 846 832 1162 85 104 110 136 104 136 -2 0 -44 -48 -94
-107z m-48 -1765 c-3 -8 -6 -5 -6 6 -1 11 2 17 5 13 3 -3 4 -12 1 -19z m-3300
-99 c-43 -131 -271 -843 -312 -978 l-14 -43 72 7 c130 12 276 55 727 214 197
69 365 116 488 136 140 24 321 17 412 -14 75 -26 170 -85 220 -136 52 -54 86
-49 163 21 113 102 237 144 426 144 190 0 400 -51 780 -189 310 -113 556 -181
656 -181 l34 0 -19 58 c-10 31 -46 145 -80 252 -34 107 -101 319 -150 470
-103 321 -103 320 -97 320 3 0 22 -51 43 -114 21 -63 42 -112 47 -109 6 3 7 1
3 -5 -11 -18 15 -96 27 -80 6 9 7 7 3 -6 -9 -26 15 -101 26 -84 6 9 8 7 4 -7
-3 -12 42 -165 108 -365 63 -190 111 -348 107 -351 -10 -11 -166 10 -265 36
-52 13 -244 73 -428 133 -453 150 -526 166 -743 167 -141 0 -179 -3 -225 -19
-84 -29 -140 -60 -190 -104 -38 -34 -42 -41 -28 -47 12 -5 34 5 67 29 142 104
312 136 541 102 126 -19 256 -56 608 -170 303 -99 470 -140 610 -152 l82 -7
-15 49 c-8 27 -51 157 -95 289 -80 241 -84 252 -75 244 5 -5 205 -584 205
-594 0 -3 -31 -5 -68 -5 -125 0 -355 51 -652 145 -63 20 -164 51 -225 70 -386
116 -602 124 -790 30 -93 -46 -121 -70 -105 -89 10 -12 21 -9 73 25 104 67
176 84 357 83 198 0 266 -16 755 -169 195 -60 365 -101 493 -116 56 -7 100
-14 98 -17 -9 -8 -236 19 -349 43 -62 13 -231 58 -376 99 -145 42 -314 86
-375 98 -144 28 -324 30 -410 4 -74 -22 -163 -66 -206 -102 -32 -27 -33 -27
-46 -8 -41 60 -97 89 -192 100 -115 13 -221 -24 -267 -92 l-21 -31 -34 29
c-59 49 -169 98 -260 114 -162 29 -329 4 -729 -111 -141 -40 -308 -84 -371
-98 -134 -30 -365 -58 -349 -43 2 2 49 9 104 16 127 15 304 60 576 145 392
123 530 150 712 143 129 -6 203 -27 302 -87 54 -33 66 -37 76 -25 14 17 19 12
-61 63 -103 67 -180 86 -340 86 -193 -1 -230 -9 -830 -193 -91 -27 -219 -62
-284 -77 -121 -27 -326 -47 -326 -32 0 14 233 688 236 684 2 -2 -16 -64 -41
-137 -25 -74 -45 -139 -44 -145 0 -5 29 75 65 180 37 109 62 198 58 210 -4 14
-3 16 4 7 7 -11 11 -8 16 11 3 14 3 34 0 44 -5 15 -4 16 6 3 10 -13 11 -11 7
8 -3 12 -2 20 2 18 4 -3 29 61 55 140 26 80 50 143 53 141 2 -3 -7 -38 -20
-78z m3512 -469 c0 -8 -7 1 -14 20 -18 46 -17 64 0 25 8 -16 14 -37 14 -45z"/>
<path d="M1081 1658 l-60 -183 26 -3 c91 -12 336 46 698 165 286 93 479 146
598 162 213 30 379 -4 519 -105 30 -21 56 -33 66 -29 25 10 -43 71 -125 112
-93 46 -173 62 -309 63 -184 0 -357 -38 -705 -156 -407 -137 -564 -179 -694
-186 -60 -2 -61 -16 5 187 27 82 48 151 46 153 -3 2 -31 -79 -65 -180z"/>
<path d="M3925 3120 c11 -5 27 -9 35 -9 9 0 8 4 -5 9 -11 5 -27 9 -35 9 -9 0
-8 -4 5 -9z"/>
<path d="M3988 3103 c7 -3 16 -2 19 1 4 3 -2 6 -13 5 -11 0 -14 -3 -6 -6z"/>
<path d="M2670 1095 c-8 -2 -37 -7 -64 -10 -32 -4 -45 -10 -38 -17 24 -24 888
-26 977 -2 l30 8 -35 9 c-33 9 -837 20 -870 12z"/>
</g>
</svg>
